<svg xmlns="http://www.w3.org/2000/svg" xmlns:xlink="http://www.w3.org/1999/xlink" width="5292" zoomAndPan="magnify" viewBox="0 0 3969 1052.999952" height="1404" preserveAspectRatio="xMidYMid meet" version="1.0"><defs><g/></defs><rect x="-396.9" width="4762.8" fill="#ffffff" y="-105.299995" height="1263.599942" fill-opacity="1"/><rect x="-396.9" width="4762.8" fill="#98413c" y="-105.299995" height="1263.599942" fill-opacity="1"/><path fill="#ffffff" d="M 1100.457031 624.09375 L 1844.253906 142.898438 C 1844.253906 142.898438 2588.054688 624.09375 2588.054688 624.09375 C 2595.75 629.074219 2606.050781 626.867188 2611.03125 619.171875 C 2616.007812 611.472656 2613.804688 601.175781 2606.097656 596.195312 C 2606.097656 596.195312 1853.28125 109.171875 1853.28125 109.171875 C 1847.789062 105.613281 1840.71875 105.613281 1835.238281 109.171875 C 1835.238281 109.171875 1082.414062 596.195312 1082.414062 596.195312 C 1074.714844 601.175781 1072.511719 611.472656 1077.492188 619.171875 C 1082.472656 626.867188 1092.757812 629.074219 1100.457031 624.09375 Z M 1100.457031 624.09375 " fill-opacity="1" fill-rule="evenodd"/><path fill="#ffffff" d="M 2028.148438 241.292969 L 2164.960938 152.773438 C 2164.960938 152.773438 2868.175781 614.101562 2868.175781 614.101562 C 2875.84375 619.132812 2886.152344 616.996094 2891.183594 609.320312 C 2896.203125 601.652344 2894.0625 591.355469 2886.398438 586.324219 C 2886.398438 586.324219 2174.140625 119.058594 2174.140625 119.058594 C 2168.636719 115.449219 2161.53125 115.425781 2156.003906 118.996094 C 2156.003906 118.996094 2095.433594 158.179688 2010.097656 213.394531 C 2002.398438 218.375 2000.183594 228.664062 2005.171875 236.371094 C 2010.152344 244.066406 2020.449219 246.273438 2028.148438 241.292969 Z M 2028.148438 241.292969 " fill-opacity="1" fill-rule="evenodd"/><path fill="#ffffff" d="M 1504.472656 347.796875 L 1504.472656 222.316406 C 1504.472656 213.195312 1497.039062 205.777344 1487.910156 205.777344 L 1349.507812 205.777344 C 1340.320312 205.777344 1332.945312 213.195312 1332.945312 222.316406 L 1332.945312 443.1875 C 1332.945312 452.308594 1340.320312 459.722656 1349.507812 459.722656 C 1358.636719 459.722656 1366.066406 452.308594 1366.066406 443.1875 L 1366.066406 238.855469 C 1366.066406 238.855469 1471.347656 238.855469 1471.347656 238.855469 L 1471.347656 347.796875 C 1471.347656 356.917969 1478.78125 364.335938 1487.910156 364.335938 C 1497.039062 364.335938 1504.472656 356.917969 1504.472656 347.796875 Z M 1504.472656 347.796875 " fill-opacity="1" fill-rule="evenodd"/><g fill="#ffffff" fill-opacity="1"><g transform="translate(695.662113, 864.990145)"><g><path d="M 66.136719 -85.644531 L 66.136719 -84.214844 L 101.34375 -74.699219 L 101.34375 -29.5 C 100.632812 -29.261719 99.917969 -29.261719 98.964844 -29.261719 C 68.753906 -29.261719 41.871094 -82.3125 41.871094 -124.183594 C 41.871094 -142.738281 49.722656 -151.78125 59.949219 -151.78125 C 79.21875 -151.78125 99.203125 -122.042969 103.488281 -97.0625 L 104.675781 -96.824219 L 144.882812 -133.699219 C 136.554688 -149.402344 115.382812 -163.914062 85.882812 -163.914062 C 74.699219 -163.914062 5.949219 -152.730469 5.949219 -79.695312 C 5.949219 -34.496094 36.875 2.378906 80.886719 2.855469 C 85.882812 2.855469 95.875 -12.847656 107.769531 -29.5 L 109.195312 -29.5 L 142.976562 3.804688 L 144.644531 3.804688 L 145.59375 -84.453125 L 144.40625 -85.644531 Z M 66.136719 -85.644531 "/></g></g></g><g fill="#ffffff" fill-opacity="1"><g transform="translate(887.885348, 864.990145)"><g><path d="M 88.972656 -160.582031 L 88.972656 -159.15625 C 97.777344 -138.933594 93.96875 -109.433594 75.175781 -89.449219 L 66.375 -80.171875 L 66.375 -145.832031 L 78.507812 -159.15625 L 78.507812 -160.582031 L 7.613281 -160.582031 L 7.613281 -159.15625 L 19.746094 -145.832031 L 19.746094 -14.75 L 7.613281 -1.425781 L 7.613281 0 L 78.507812 0 L 78.507812 -1.425781 L 66.375 -14.75 L 66.375 -73.988281 L 67.324219 -74.9375 L 99.203125 -13.796875 L 87.546875 -1.425781 L 87.546875 0 L 154.160156 0 L 154.160156 -1.664062 L 107.054688 -98.015625 L 74.699219 -80.410156 L 73.988281 -81.363281 L 154.636719 -159.15625 L 154.636719 -160.582031 Z M 88.972656 -160.582031 "/></g></g></g><g fill="#ffffff" fill-opacity="1"><g transform="translate(1081.773884, 864.990145)"><g><path d="M 80.410156 -159.15625 C 112.765625 -136.792969 110.863281 -89.925781 102.058594 -70.65625 L 97.0625 -56.382812 L 96.113281 -56.382812 L 58.285156 -146.785156 L 70.179688 -159.15625 L 70.179688 -160.582031 L 1.664062 -160.582031 L 1.664062 -159.15625 L 73.75 3.570312 L 76.367188 3.570312 L 146.308594 -159.15625 L 146.308594 -160.582031 L 80.410156 -160.582031 Z M 80.410156 -159.15625 "/></g></g></g><g fill="#ffffff" fill-opacity="1"><g transform="translate(1266.146473, 864.990145)"><g/></g></g><g fill="#ffffff" fill-opacity="1"><g transform="translate(1347.508511, 864.990145)"><g><path d="M 83.027344 -77.078125 L 83.027344 -78.746094 C 133.460938 -84.929688 149.640625 -104.914062 149.640625 -124.898438 C 149.640625 -152.96875 119.664062 -160.582031 83.503906 -160.582031 L 7.851562 -160.582031 L 7.851562 -159.15625 L 20.699219 -146.785156 L 20.460938 -14.75 L 8.089844 -1.425781 L 8.089844 0 L 79.21875 0 L 79.21875 -1.425781 L 66.851562 -14.75 L 66.851562 -78.507812 L 72.320312 -78.507812 L 103.25 -13.796875 L 91.355469 -1.425781 L 91.355469 0 L 157.726562 0 L 157.726562 -2.140625 L 117.523438 -78.507812 Z M 66.851562 -156.300781 L 76.367188 -156.300781 C 96.585938 -156.300781 100.871094 -140.597656 100.871094 -122.28125 C 100.871094 -104.675781 98.253906 -82.789062 73.988281 -82.789062 L 66.851562 -82.789062 Z M 66.851562 -156.300781 "/></g></g></g><g fill="#ffffff" fill-opacity="1"><g transform="translate(1544.251884, 864.990145)"><g><path d="M 138.695312 -67.5625 C 133.460938 -59.714844 129.179688 -52.8125 125.375 -46.867188 C 103.960938 -12.371094 98.492188 -4.28125 70.65625 -4.28125 L 66.851562 -4.28125 L 66.851562 -78.984375 L 69.230469 -78.984375 C 82.074219 -78.984375 91.589844 -73.273438 106.578125 -46.152344 L 108.007812 -46.152344 L 108.007812 -115.855469 L 106.578125 -115.855469 C 91.355469 -86.832031 82.074219 -83.027344 69.230469 -83.027344 L 66.851562 -83.027344 L 66.851562 -156.300781 L 69.230469 -156.300781 C 97.0625 -156.300781 102.535156 -148.210938 123.945312 -113.714844 L 137.269531 -93.019531 L 138.695312 -93.019531 L 138.695312 -160.582031 L 7.613281 -160.582031 L 7.613281 -159.15625 L 20.460938 -146.785156 L 20.460938 -13.796875 L 7.613281 -1.425781 L 7.613281 0 L 140.125 0 L 140.125 -67.5625 Z M 138.695312 -67.5625 "/></g></g></g><g fill="#ffffff" fill-opacity="1"><g transform="translate(1734.096165, 864.990145)"><g><path d="M 47.816406 -160.582031 L 47.816406 -159.15625 L 58.046875 -130.371094 L 1.664062 -1.425781 L 1.664062 0 L 62.566406 0 L 62.566406 -1.425781 C 51.863281 -13.558594 45.914062 -33.066406 45.4375 -55.667969 L 84.453125 -55.667969 L 98.726562 -13.796875 L 86.59375 -1.425781 L 86.59375 0 L 151.066406 0 L 151.066406 -1.425781 L 96.824219 -160.582031 Z M 45.4375 -59.949219 C 45.914062 -75.175781 48.769531 -91.828125 54.480469 -108.246094 L 59.949219 -123.707031 L 61.378906 -123.707031 L 83.027344 -59.949219 Z M 45.4375 -59.949219 "/></g></g></g><g fill="#ffffff" fill-opacity="1"><g transform="translate(1922.988846, 864.990145)"><g><path d="M 133.9375 -77.316406 C 110.625 -33.542969 97.777344 -4.28125 74.699219 -4.28125 L 66.851562 -4.28125 L 66.851562 -145.832031 L 79.21875 -159.15625 L 79.21875 -160.582031 L 8.089844 -160.582031 L 8.089844 -159.15625 L 20.460938 -145.832031 L 20.699219 -13.796875 L 7.851562 -1.425781 L 7.851562 0 L 135.363281 0 L 135.363281 -77.316406 Z M 133.9375 -77.316406 "/></g></g></g><g fill="#ffffff" fill-opacity="1"><g transform="translate(2101.651798, 864.990145)"><g/></g></g><g fill="#ffffff" fill-opacity="1"><g transform="translate(2183.013882, 864.990145)"><g><path d="M 138.695312 -67.5625 C 133.460938 -59.714844 129.179688 -52.8125 125.375 -46.867188 C 103.960938 -12.371094 98.492188 -4.28125 70.65625 -4.28125 L 66.851562 -4.28125 L 66.851562 -78.984375 L 69.230469 -78.984375 C 82.074219 -78.984375 91.589844 -73.273438 106.578125 -46.152344 L 108.007812 -46.152344 L 108.007812 -115.855469 L 106.578125 -115.855469 C 91.355469 -86.832031 82.074219 -83.027344 69.230469 -83.027344 L 66.851562 -83.027344 L 66.851562 -156.300781 L 69.230469 -156.300781 C 97.0625 -156.300781 102.535156 -148.210938 123.945312 -113.714844 L 137.269531 -93.019531 L 138.695312 -93.019531 L 138.695312 -160.582031 L 7.613281 -160.582031 L 7.613281 -159.15625 L 20.460938 -146.785156 L 20.460938 -13.796875 L 7.613281 -1.425781 L 7.613281 0 L 140.125 0 L 140.125 -67.5625 Z M 138.695312 -67.5625 "/></g></g></g><g fill="#ffffff" fill-opacity="1"><g transform="translate(2372.858073, 864.990145)"><g><path d="M 74.226562 -109.910156 C 44.964844 -127.277344 33.304688 -133.699219 33.304688 -143.691406 C 33.304688 -149.164062 37.351562 -152.96875 45.199219 -152.96875 C 68.992188 -152.96875 102.058594 -130.371094 128.941406 -94.207031 L 130.371094 -94.207031 L 130.371094 -163.199219 L 129.179688 -163.199219 L 113.953125 -153.683594 C 105.152344 -159.15625 91.828125 -163.675781 75.175781 -163.675781 C 42.109375 -163.675781 15.226562 -151.542969 14.75 -117.761719 C 14.273438 -91.828125 31.164062 -79.695312 51.148438 -67.800781 L 78.746094 -50.910156 C 101.34375 -37.589844 120.851562 -28.546875 120.851562 -17.84375 C 120.851562 -13.324219 117.761719 -8.5625 107.054688 -8.5625 C 88.972656 -8.5625 39.730469 -22.601562 10.945312 -79.695312 L 9.277344 -79.457031 L 13.324219 -6.183594 C 34.734375 -3.09375 54.242188 4.757812 77.316406 4.757812 C 118.472656 4.757812 138.933594 -20.460938 138.933594 -45.914062 C 138.933594 -66.136719 125.847656 -78.984375 102.773438 -92.542969 Z M 74.226562 -109.910156 "/></g></g></g><g fill="#ffffff" fill-opacity="1"><g transform="translate(2555.327417, 864.990145)"><g><path d="M 145.832031 -160.582031 L 7.136719 -160.582031 L 7.136719 -93.019531 L 8.5625 -93.019531 C 44.964844 -156.0625 45.199219 -156.300781 50.433594 -156.300781 L 53.050781 -156.300781 L 53.050781 -14.75 L 40.679688 -1.425781 L 40.679688 0 L 111.8125 0 L 111.8125 -1.425781 L 99.441406 -14.75 L 99.441406 -156.300781 L 102.535156 -156.300781 C 106.578125 -156.300781 107.769531 -156.0625 144.40625 -93.019531 L 145.832031 -93.019531 Z M 145.832031 -160.582031 "/></g></g></g><g fill="#ffffff" fill-opacity="1"><g transform="translate(2742.792608, 864.990145)"><g><path d="M 47.816406 -160.582031 L 47.816406 -159.15625 L 58.046875 -130.371094 L 1.664062 -1.425781 L 1.664062 0 L 62.566406 0 L 62.566406 -1.425781 C 51.863281 -13.558594 45.914062 -33.066406 45.4375 -55.667969 L 84.453125 -55.667969 L 98.726562 -13.796875 L 86.59375 -1.425781 L 86.59375 0 L 151.066406 0 L 151.066406 -1.425781 L 96.824219 -160.582031 Z M 45.4375 -59.949219 C 45.914062 -75.175781 48.769531 -91.828125 54.480469 -108.246094 L 59.949219 -123.707031 L 61.378906 -123.707031 L 83.027344 -59.949219 Z M 45.4375 -59.949219 "/></g></g></g><g fill="#ffffff" fill-opacity="1"><g transform="translate(2931.685289, 864.990145)"><g><path d="M 145.832031 -160.582031 L 7.136719 -160.582031 L 7.136719 -93.019531 L 8.5625 -93.019531 C 44.964844 -156.0625 45.199219 -156.300781 50.433594 -156.300781 L 53.050781 -156.300781 L 53.050781 -14.75 L 40.679688 -1.425781 L 40.679688 0 L 111.8125 0 L 111.8125 -1.425781 L 99.441406 -14.75 L 99.441406 -156.300781 L 102.535156 -156.300781 C 106.578125 -156.300781 107.769531 -156.0625 144.40625 -93.019531 L 145.832031 -93.019531 Z M 145.832031 -160.582031 "/></g></g></g><g fill="#ffffff" fill-opacity="1"><g transform="translate(3119.15048, 864.990145)"><g><path d="M 138.695312 -67.5625 C 133.460938 -59.714844 129.179688 -52.8125 125.375 -46.867188 C 103.960938 -12.371094 98.492188 -4.28125 70.65625 -4.28125 L 66.851562 -4.28125 L 66.851562 -78.984375 L 69.230469 -78.984375 C 82.074219 -78.984375 91.589844 -73.273438 106.578125 -46.152344 L 108.007812 -46.152344 L 108.007812 -115.855469 L 106.578125 -115.855469 C 91.355469 -86.832031 82.074219 -83.027344 69.230469 -83.027344 L 66.851562 -83.027344 L 66.851562 -156.300781 L 69.230469 -156.300781 C 97.0625 -156.300781 102.535156 -148.210938 123.945312 -113.714844 L 137.269531 -93.019531 L 138.695312 -93.019531 L 138.695312 -160.582031 L 7.613281 -160.582031 L 7.613281 -159.15625 L 20.460938 -146.785156 L 20.460938 -13.796875 L 7.613281 -1.425781 L 7.613281 0 L 140.125 0 L 140.125 -67.5625 Z M 138.695312 -67.5625 "/></g></g></g></svg>